<svg width="364" height="334" viewBox="0 0 364 334" fill="none" xmlns="http://www.w3.org/2000/svg">
<circle cx="214" cy="184" r="150" fill="#0F3CA6" fill-opacity="0.05"/>
<path d="M215.625 131.25V112.5H84.375V131.25H131.25V156.881L94.9875 220.35L111.263 229.65L146.062 168.75H153.938L188.738 229.65L205.012 220.35L168.75 156.881V131.25H215.625Z" fill="#0F3CA6"/>
<path d="M150 103.125C160.355 103.125 168.75 94.7303 168.75 84.375C168.75 74.0197 160.355 65.625 150 65.625C139.645 65.625 131.25 74.0197 131.25 84.375C131.25 94.7303 139.645 103.125 150 103.125Z" fill="#0F3CA6"/>
<path d="M150 281.25C124.041 281.25 98.6654 273.552 77.0815 259.13C55.4975 244.708 38.6749 224.21 28.7409 200.227C18.8069 176.244 16.2077 149.854 21.272 124.394C26.3363 98.9344 38.8366 75.5479 57.1923 57.1922C75.5479 38.8366 98.9344 26.3362 124.394 21.2719C149.854 16.2076 176.244 18.8068 200.227 28.7408C224.21 38.6748 244.708 55.4974 259.13 77.0814C273.552 98.6653 281.25 124.041 281.25 150C281.21 184.797 267.369 218.158 242.764 242.764C218.158 267.369 184.798 281.21 150 281.25ZM150 37.5C127.75 37.5 105.999 44.098 87.4984 56.4597C68.9979 68.8213 54.5785 86.3914 46.0636 106.948C37.5488 127.505 35.3209 150.125 39.6617 171.948C44.0026 193.77 54.7171 213.816 70.4505 229.549C86.1839 245.283 106.23 255.997 128.052 260.338C149.875 264.679 172.495 262.451 193.052 253.936C213.609 245.422 231.179 231.002 243.54 212.502C255.902 194.001 262.5 172.25 262.5 150C262.465 120.174 250.602 91.5792 229.511 70.4888C208.421 49.3985 179.826 37.5347 150 37.5Z" fill="#0F3CA6"/>
</svg>
