<svg width="80" height="80" viewBox="0 0 80 80" fill="none" xmlns="http://www.w3.org/2000/svg">
<path d="M20 48.3348C20 49.2189 19.6489 50.0667 19.0237 50.6918C18.3986 51.3169 17.5508 51.6681 16.6667 51.6681C15.7827 51.6681 14.9348 51.3169 14.3097 50.6918C13.6846 50.0667 13.3334 49.2189 13.3334 48.3348V33.3348C13.3334 32.4507 13.6846 31.6029 14.3097 30.9778C14.9348 30.3527 15.7827 30.0015 16.6667 30.0015C17.5508 30.0015 18.3986 30.3527 19.0237 30.9778C19.6489 31.6029 20 32.4507 20 33.3348V48.3348ZM66.6667 48.3348C66.6667 49.2189 66.3155 50.0667 65.6904 50.6918C65.0653 51.3169 64.2174 51.6681 63.3334 51.6681C62.4493 51.6681 61.6015 51.3169 60.9763 50.6918C60.3512 50.0667 60 49.2189 60 48.3348V33.3348C60 32.4507 60.3512 31.6029 60.9763 30.9778C61.6015 30.3527 62.4493 30.0015 63.3334 30.0015C64.2174 30.0015 65.0653 30.3527 65.6904 30.9778C66.3155 31.6029 66.6667 32.4507 66.6667 33.3348V48.3348ZM36.6667 66.6665C36.6667 67.5505 36.3155 68.3984 35.6904 69.0235C35.0653 69.6486 34.2174 69.9998 33.3334 69.9998C32.4493 69.9998 31.6015 69.6486 30.9764 69.0235C30.3512 68.3984 30 67.5505 30 66.6665V51.6665C30 50.7824 30.3512 49.9346 30.9764 49.3094C31.6015 48.6843 32.4493 48.3331 33.3334 48.3331C34.2174 48.3331 35.0653 48.6843 35.6904 49.3094C36.3155 49.9346 36.6667 50.7824 36.6667 51.6665V66.6665ZM50 66.6665C50 67.5505 49.6488 68.3984 49.0237 69.0235C48.3986 69.6486 47.5508 69.9998 46.6667 69.9998C45.7827 69.9998 44.9348 69.6486 44.3097 69.0235C43.6846 68.3984 43.3334 67.5505 43.3334 66.6665V51.6665C43.3334 50.7824 43.6846 49.9346 44.3097 49.3094C44.9348 48.6843 45.7827 48.3331 46.6667 48.3331C47.5508 48.3331 48.3986 48.6843 49.0237 49.3094C49.6488 49.9346 50 50.7824 50 51.6665V66.6665Z" fill="#1166B0"/>
<path d="M23.3334 30.0018V55.0002C23.3334 55.8842 23.6846 56.7321 24.3097 57.3572C24.9348 57.9823 25.7827 58.3335 26.6667 58.3335H53.3334C54.2174 58.3335 55.0653 57.9823 55.6904 57.3572C56.3155 56.7321 56.6667 55.8842 56.6667 55.0002V30.0018H23.3334ZM40 13.3335C30 13.3335 23.9084 19.4085 23.3334 26.6668H56.6667C56.09 19.4085 50 13.3335 40 13.3335ZM33.3334 22.6635C32.8913 22.6635 32.4674 22.4879 32.1549 22.1753C31.8423 21.8628 31.6667 21.4389 31.6667 20.9968C31.6667 20.5548 31.8423 20.1309 32.1549 19.8183C32.4674 19.5058 32.8913 19.3302 33.3334 19.3302C33.7754 19.3302 34.1993 19.5058 34.5119 19.8183C34.8244 20.1309 35 20.5548 35 20.9968C35 21.4389 34.8244 21.8628 34.5119 22.1753C34.1993 22.4879 33.7754 22.6635 33.3334 22.6635ZM46.6667 22.6635C46.2247 22.6635 45.8008 22.4879 45.4882 22.1753C45.1756 21.8628 45 21.4389 45 20.9968C45 20.5548 45.1756 20.1309 45.4882 19.8183C45.8008 19.5058 46.2247 19.3302 46.6667 19.3302C47.1087 19.3302 47.5327 19.5058 47.8452 19.8183C48.1578 20.1309 48.3334 20.5548 48.3334 20.9968C48.3334 21.4389 48.1578 21.8628 47.8452 22.1753C47.5327 22.4879 47.1087 22.6635 46.6667 22.6635Z" fill="#1166B0"/>
<path d="M50 11.6665L47.2233 15.8315M30 11.6665L32.2217 15.1365" stroke="#1166B0" stroke-width="4.16667" stroke-linecap="round"/>
</svg>
