<svg width="66" height="66" viewBox="0 0 66 66" fill="none" xmlns="http://www.w3.org/2000/svg">
<path d="M24.1311 32.931C24.1311 37.8811 28.1359 41.8858 33.0859 41.8858C38.0359 41.8858 42.0407 37.8811 42.0407 32.931C42.0407 27.981 38.0359 23.9762 33.0859 23.9762C28.1359 23.9762 24.1311 27.9746 24.1311 32.931ZM57.868 23.3759L42.9029 24.1487C46.9652 28.8943 47.029 35.7414 43.6119 40.9916L31.6041 59.4632C36.5861 59.7315 41.7213 58.6393 46.3712 55.9375C57.868 49.2949 62.5306 35.3645 57.868 23.3759V23.3759ZM20.8418 38.0343L10.8459 18.3747C8.01474 22.7011 6.50956 27.7606 6.5154 32.931C6.5154 46.2163 16.243 57.2213 28.9598 59.1694L35.7877 45.7947C29.6177 46.9572 23.6585 43.572 20.8418 38.0343V38.0343ZM34.7977 19.7991L56.795 20.9551C54.5467 16.4969 51.0082 12.6199 46.3584 9.91815C42.1493 7.48464 37.525 6.32857 32.9901 6.36051C25.1659 6.39244 17.5204 9.88621 12.4171 16.2286L20.6054 28.8049C22.6493 22.9351 28.5766 19.435 34.7977 19.7991Z" fill="#1166B0"/>
</svg>
