<svg width="67" height="66" viewBox="0 0 67 66" fill="none" xmlns="http://www.w3.org/2000/svg">
<g clip-path="url(#clip0_135_50)">
<path d="M55.5086 14.16C57.6956 15.2883 60.4957 18.8692 61.8692 22.1843C63.8716 27.24 64.5784 32.716 63.9253 38.1144L63.8885 38.4291C63.8571 38.7348 63.8217 39.0401 63.7822 39.3448C62.4269 47.1639 58.1893 54.1906 51.9061 59.0379C45.6228 63.8851 37.7506 66.2005 29.8436 65.5269C21.9366 64.8534 14.5694 61.2398 9.19657 55.3997C3.82373 49.5596 0.835699 41.9173 0.822388 33.9816V33.8181C0.887792 32.3343 1.04722 30.8586 1.28839 29.3952C1.32927 29.0927 1.59498 27.6783 1.65629 27.3962L1.69717 27.1878C2.46739 23.7361 3.91368 20.4712 5.95254 17.5815C6.83959 16.3143 7.83292 15.1288 8.91617 14.0251C9.86863 13.0523 10.9069 12.1611 12.0147 11.3681C12.3498 11.1471 12.7058 10.9595 13.0775 10.8081C13.0039 11.9036 12.914 17.1564 14.173 18.7506H14.1853C16.2948 16.277 18.895 14.2683 21.8213 12.852C21.1562 15.3966 21.1858 18.0731 21.9071 20.6024C22.1933 20.7945 22.4671 21.003 22.7247 21.2237C23.1621 21.5916 23.6485 22.0699 24.5805 22.9937L24.8585 23.2635L24.8953 23.3003C25.1674 23.5662 25.4584 23.8121 25.766 24.0361C27.3316 25.2093 29.6207 26.3375 31.1046 27.0651C31.9262 27.4739 32.5026 27.7519 32.5721 27.8541L32.5885 27.8868C32.5394 28.6757 29.7475 31.3941 28.7746 31.3941C19.7569 31.3941 18.2935 36.8513 18.2935 36.8513C18.6492 40.9268 21.2122 44.3687 24.4947 46.4861C25.07 46.8545 25.6696 47.1836 26.2892 47.4713C26.5999 47.6103 26.9105 47.737 27.2212 47.8555C28.5497 48.3256 29.9396 48.5913 31.3499 48.6486C43.789 49.2331 48.3346 37.1865 44.1405 29.2521V29.248C43.3927 27.8393 42.3778 26.5897 41.1523 25.569C40.4353 24.9764 39.6521 24.4688 38.8182 24.0565L38.806 24.0484C41.4959 23.6989 44.2198 24.3602 46.4501 25.9042C45.0568 23.4486 43.0388 21.4053 40.6007 19.9817C38.1626 18.558 35.3913 17.8047 32.568 17.7982C32.2492 17.7982 31.9426 17.8186 31.6278 17.839L31.4561 17.8513V17.8472H31.448C30.3409 17.9231 29.2448 18.1149 28.1778 18.4195C27.7393 17.9757 27.2853 17.5476 26.8165 17.1359C26.5554 16.9142 26.2825 16.7068 25.999 16.5146C25.8506 15.9997 25.7305 15.477 25.6392 14.949C27.4161 14.2949 29.277 13.8971 31.1659 13.7676L31.3703 13.7554C31.5829 13.739 31.8813 13.7145 32.2083 13.7063C33.4837 9.27107 36.4964 3.67491 42.3705 0.237093L42.3582 0.257531L42.3705 0.253444L42.3787 0.245268H42.3868L42.395 0.237093C42.4151 0.231516 42.4363 0.231516 42.4563 0.237093C42.4756 0.240463 42.493 0.250614 42.5054 0.265707C42.7141 0.948349 42.9965 1.60626 43.3475 2.22784C43.5927 2.64888 43.8462 3.04539 44.0955 3.4419C46.0985 6.60584 48.2773 9.07894 50.403 11.4866C53.5546 15.0594 56.5837 18.4972 58.7257 23.8317L58.7216 23.7786C58.1534 20.4258 57.0695 17.1812 55.5086 14.16Z" fill="#1166B0"/>
</g>
<defs>
<clipPath id="clip0_135_50">
<rect width="65.4043" height="65.4043" fill="white" transform="translate(0.797852 0.229004)"/>
</clipPath>
</defs>
</svg>
