<svg width="80" height="80" viewBox="0 0 80 80" fill="none" xmlns="http://www.w3.org/2000/svg">
<path d="M58.3906 41.8516C58.3594 36.5234 60.7734 32.5078 65.6484 29.5469C62.9219 25.6406 58.7969 23.4922 53.3594 23.0781C48.2109 22.6719 42.5781 26.0781 40.5156 26.0781C38.3359 26.0781 33.3516 23.2188 29.4297 23.2188C21.3359 23.3438 12.7344 29.6719 12.7344 42.5469C12.7344 46.3516 13.4297 50.2813 14.8203 54.3281C16.6797 59.6563 23.3828 72.7109 30.375 72.5C34.0312 72.4141 36.6172 69.9062 41.375 69.9062C45.9922 69.9062 48.3828 72.5 52.4609 72.5C59.5156 72.3984 65.5781 60.5313 67.3438 55.1875C57.8828 50.7266 58.3906 42.125 58.3906 41.8516V41.8516ZM50.1797 18.0234C54.1406 13.3203 53.7813 9.03906 53.6641 7.5C50.1641 7.70312 46.1172 9.88281 43.8125 12.5625C41.2734 15.4375 39.7812 18.9922 40.1016 23C43.8828 23.2891 47.3359 21.3437 50.1797 18.0234V18.0234Z" fill="#1166B0"/>
</svg>
