<svg width="66" height="66" viewBox="0 0 66 66" fill="none" xmlns="http://www.w3.org/2000/svg">
<g clip-path="url(#clip0_135_58)">
<path d="M54.5018 45.8322C55.1196 46.0797 55.6522 46.5015 56.0347 47.0463C56.378 47.5572 56.6192 48.1745 56.7705 48.898C56.8522 49.3231 56.9503 49.7156 57.0566 50.0835C57.257 50.7728 57.5587 51.4286 57.9518 52.0292C58.144 52.3277 58.4015 52.6547 58.7203 53.0185C58.9942 53.3169 59.2395 53.7011 59.4561 54.1671C59.6559 54.5864 59.7632 55.0436 59.7709 55.5079C59.7867 55.9543 59.6529 56.3931 59.3907 56.7547C59.124 57.1058 58.7991 57.4086 58.4301 57.6499C57.9396 57.9892 57.4286 58.2876 56.8972 58.5452C56.3658 58.7986 55.8344 59.0643 55.303 59.3423C54.5084 59.7209 53.7492 60.1696 53.0342 60.6831C52.3966 61.1531 51.7548 61.7459 51.1171 62.4735C50.3737 63.3063 49.513 64.0265 48.5622 64.6114C48.0767 64.9194 47.5494 65.1562 46.9966 65.3145C46.4652 65.4617 45.9338 65.5598 45.4024 65.6006C44.1679 65.6006 43.1459 65.3881 42.3366 64.963C41.5272 64.5378 40.8241 63.7611 40.2273 62.6329C40.0556 62.31 39.888 62.1097 39.7163 62.0238C39.4512 61.9115 39.172 61.8359 38.8865 61.799L35.653 61.5456C34.5902 61.4638 33.507 61.4189 32.3992 61.4189C31.4791 61.4201 30.5606 61.4939 29.6522 61.6396C28.7161 61.7908 27.7882 61.9707 26.8725 62.1833C26.6845 62.2241 26.4924 62.3877 26.3002 62.6615C26.061 62.9938 25.7929 63.3044 25.499 63.5895C25.1008 63.9687 24.6367 64.272 24.1296 64.4847C23.407 64.767 22.6367 64.9072 21.8609 64.8975C21.1578 64.8975 20.4016 64.824 19.5922 64.6768C18.835 64.5451 18.1028 64.2969 17.4216 63.941C16.1928 63.3125 14.8812 62.8611 13.5259 62.6002C12.2465 62.3672 10.8975 62.1506 9.47088 61.9625C8.99803 61.9009 8.52867 61.815 8.06468 61.705C7.63606 61.6081 7.23234 61.4229 6.87923 61.1613C6.55519 60.9217 6.28504 60.6167 6.0862 60.2661C5.86822 59.8195 5.75763 59.3282 5.76327 58.8313C5.76327 58.1691 5.84911 57.5314 6.0208 56.9141C6.19248 56.301 6.2865 55.6469 6.30694 54.9684C6.30694 54.4983 6.27424 54.0404 6.21292 53.5949C6.14532 53.1177 6.10166 52.6375 6.08211 52.156C6.08211 51.0727 6.33964 50.2756 6.85061 49.7605C7.36158 49.2496 8.10556 48.8449 9.08662 48.5465C9.52247 48.4145 9.93292 48.21 10.3007 47.9415C10.6381 47.687 10.9577 47.4097 11.2572 47.1117C11.5614 46.806 11.839 46.4751 12.087 46.1224C12.3446 45.7586 12.6307 45.3948 12.9496 45.0351C13.0132 44.9532 13.0477 44.8526 13.0477 44.7489C13.0477 44.4914 13.0354 44.2461 13.015 44.0131L12.9496 43.2446C12.9496 41.7976 13.1744 40.3423 13.62 38.8707C14.0696 37.3991 14.6542 35.9684 15.3777 34.5581C16.1001 33.1562 16.9111 31.8018 17.8058 30.503C18.697 29.2072 19.584 28.0013 20.4547 26.8935C21.6374 25.4129 22.5758 23.7528 23.2344 21.9759C23.8476 20.2754 24.1705 18.4196 24.1909 16.4166C24.1909 15.5704 24.1501 14.7283 24.0642 13.8985C23.9785 13.0496 23.9362 12.1969 23.9375 11.3437C23.9375 9.63905 24.1296 8.10614 24.5098 6.74491C24.894 5.3796 25.4908 4.21049 26.3002 3.22943C27.1096 2.24836 28.1643 1.51665 29.4601 1.02612C30.7641 0.535587 32.3174 0.269882 34.1242 0.229004C36.2785 0.229004 37.9913 0.654132 39.2707 1.50848C40.5461 2.35873 41.5272 3.47469 42.2057 4.86045C42.8884 6.24212 43.3258 7.78729 43.5138 9.49189C43.71 11.1924 43.8163 12.9174 43.8368 14.6629V15.2066C43.8368 16.0814 43.8449 16.8581 43.8695 17.5366C43.9075 18.9162 44.2217 20.2742 44.7933 21.5304C45.0917 22.1885 45.5373 22.9039 46.1341 23.6683C47.156 25.0132 48.2025 26.3662 49.2653 27.7274C50.3281 29.0887 51.2969 30.4949 52.1676 31.9378C53.0424 33.389 53.7578 34.9015 54.3096 36.4753C54.8656 38.0532 55.1517 39.7537 55.1722 41.585C55.1776 43.0288 54.9513 44.4642 54.5018 45.8363V45.8322ZM27.7105 12.5577C28.0048 12.5577 28.2501 12.6313 28.4463 12.7785C28.6457 12.9389 28.7993 13.149 28.8919 13.3875C28.9945 13.6331 29.0685 13.8895 29.1126 14.152C29.1535 14.4095 29.178 14.6752 29.178 14.9532C29.1847 15.1287 29.1511 15.3035 29.0799 15.4641C29.0099 15.5998 28.9124 15.7196 28.7938 15.8157L28.4095 16.1345C28.2725 16.2505 28.1454 16.3777 28.0294 16.5147C27.8761 16.7533 27.667 16.9512 27.4203 17.0911C27.1671 17.238 26.9215 17.3976 26.6845 17.5693C26.458 17.7336 26.2448 17.9154 26.0468 18.113C25.9478 18.2197 25.8714 18.3453 25.8223 18.4823C25.7731 18.6193 25.7521 18.7648 25.7606 18.9101C25.7606 19.1022 25.8547 19.2617 26.0468 19.3884C26.5235 19.6886 26.9015 20.1221 27.1341 20.6352C27.3467 21.1257 27.5838 21.604 27.8372 22.0741C28.0907 22.5401 28.4218 22.9325 28.8265 23.2554C29.2312 23.5743 29.8607 23.7337 30.7068 23.7337H30.9031C31.7533 23.6928 32.5627 23.468 33.3312 23.0633C34.0956 22.6586 34.8641 22.2335 35.6285 21.7838C35.7617 21.709 35.9012 21.646 36.0455 21.5958C36.194 21.5428 36.3333 21.467 36.4583 21.371L38.7884 19.5519C38.8289 19.4149 38.8617 19.2757 38.8865 19.1349C38.9113 18.9855 38.9331 18.8356 38.9519 18.6853C38.9591 18.4821 38.9018 18.2818 38.7884 18.113C38.6838 17.9647 38.5554 17.8349 38.4082 17.7288C38.2448 17.6173 38.0594 17.5421 37.8645 17.508C37.6697 17.4689 37.4783 17.4142 37.2922 17.3445C36.7827 17.2398 36.2956 17.046 35.8533 16.7722C35.4143 16.4995 34.9416 16.2852 34.4472 16.1345C34.3654 16.11 34.3 16.0487 34.255 15.9424C34.2064 15.8165 34.1641 15.6883 34.1283 15.5581C34.0862 15.4234 34.0751 15.2809 34.0956 15.1412C34.1189 15.0341 34.1074 14.9224 34.0629 14.8223C34.0629 14.5689 34.0833 14.3032 34.1283 14.0252C34.1724 13.7438 34.2695 13.4733 34.4145 13.2281C34.5391 13.001 34.7138 12.8053 34.9254 12.6558C35.1775 12.5088 35.4634 12.4299 35.7552 12.4269C36.4175 12.4269 36.8957 12.6722 37.1941 13.1627C37.4925 13.6532 37.652 14.1847 37.6724 14.7569C37.6777 15.0113 37.6231 15.2634 37.513 15.4927C37.4039 15.711 37.3479 15.9519 37.3495 16.1958C37.3495 16.3675 37.4067 16.482 37.513 16.5474C37.6417 16.618 37.7837 16.6611 37.9299 16.6741C38.4205 16.6741 38.7352 16.5597 38.8865 16.3266C39.0585 16.0021 39.1457 15.6393 39.1399 15.272C39.1399 14.7815 39.099 14.2378 39.0173 13.641C38.9364 13.0636 38.7624 12.5031 38.5022 11.9813C38.264 11.4914 37.9272 11.0558 37.513 10.7019C37.0694 10.3494 36.5133 10.1694 35.9474 10.195C34.8437 10.195 34.0425 10.4689 33.5519 11.0248C33.0614 11.5767 32.808 12.4065 32.7875 13.5143C32.7875 13.8331 32.808 14.152 32.8488 14.4708C32.8897 14.7937 32.9142 15.1126 32.9142 15.4314C32.9142 15.5377 32.902 15.5908 32.8815 15.5908C32.8152 15.5764 32.7508 15.5545 32.6894 15.5254C32.5621 15.4738 32.4353 15.4207 32.3093 15.366C32.153 15.3 31.9917 15.2467 31.8269 15.2066C31.5552 15.1406 31.2731 15.1295 30.9971 15.1739C30.8276 15.1954 30.6569 15.2063 30.4861 15.2066C30.1877 15.2066 30.0365 15.1535 30.0365 15.0472C30.0365 14.7283 30.0201 14.3236 29.9751 13.8331C29.9343 13.3426 29.828 12.852 29.6563 12.3615C29.5135 11.9251 29.2979 11.516 29.0186 11.1515C28.7611 10.8327 28.3809 10.661 27.8699 10.6406C27.5267 10.6326 27.1938 10.7587 26.942 10.9921C26.6796 11.2349 26.4538 11.5144 26.2716 11.8219C26.0757 12.154 25.9557 12.5253 25.9201 12.9093C25.8858 13.2509 25.8435 13.5916 25.7933 13.9312C25.8097 14.4952 25.9061 15.054 26.0795 15.5908C26.1858 15.9301 26.3043 16.2285 26.431 16.4861C26.5578 16.7395 26.709 16.8662 26.8807 16.8662C26.9829 16.8662 27.126 16.7927 27.2936 16.6455C27.4652 16.4942 27.5511 16.3594 27.5511 16.2285C27.5511 16.1631 27.5184 16.1223 27.453 16.1018C27.3911 16.0805 27.3262 16.0695 27.2609 16.0691C27.1137 16.0691 26.9829 15.9955 26.8766 15.8443C26.7671 15.6876 26.6816 15.5154 26.6232 15.3333C26.5561 15.1326 26.492 14.9309 26.431 14.7283C26.3037 14.1768 26.3837 13.5977 26.6559 13.1014C26.848 12.758 27.1995 12.5782 27.7105 12.5577V12.5577ZM20.7449 62.2814C21.2559 62.2814 21.7587 62.2405 22.2492 62.1506C22.7348 62.0671 23.2006 61.8938 23.6227 61.6396C24.0275 61.4054 24.3588 61.0628 24.5793 60.6504C24.8119 60.1714 24.9427 59.6495 24.9635 59.1174C24.9636 58.7372 24.8986 58.3598 24.7714 58.0015C24.6415 57.6359 24.4583 57.2915 24.2277 56.9795C23.9754 56.5797 23.6983 56.196 23.3979 55.8309C23.0974 55.4644 22.8202 55.0794 22.5681 54.6781C22.1705 54.0938 21.7754 53.5079 21.3826 52.9204C21.0025 52.3481 20.6182 51.7431 20.2381 51.1013C19.9019 50.5575 19.5816 50.004 19.2774 49.4417C18.9649 48.8676 18.601 48.3231 18.1901 47.8148C17.9306 47.4908 17.6312 47.201 17.299 46.9522C16.9576 46.6957 16.5404 46.5605 16.1135 46.568C15.6682 46.5614 15.2365 46.7218 14.9035 47.0176C14.523 47.3493 14.1702 47.7116 13.8489 48.1009C13.4719 48.5426 13.0664 48.9591 12.6348 49.3477C12.1852 49.7524 11.6129 50.0712 10.9098 50.3042C10.434 50.4318 9.9963 50.6731 9.63439 51.0073C9.33598 51.3057 9.18473 51.7635 9.18473 52.3808C9.18473 52.8059 9.21743 53.231 9.28284 53.6562C9.34415 54.0813 9.38912 54.5105 9.40956 54.9357C9.40956 55.5079 9.3278 56.0516 9.15203 56.5626C8.98714 57.0457 8.90155 57.5523 8.89859 58.0628C8.89859 58.6392 9.10298 59.0439 9.50358 59.2769C9.91235 59.514 10.3661 59.6734 10.8771 59.7551C11.5188 59.8655 12.1238 59.9473 12.7002 60.0127C13.2725 60.0781 13.8366 60.1762 14.3926 60.2988C14.9444 60.4296 15.4962 60.5645 16.0522 60.7158C16.604 60.8629 17.1927 61.1 17.8099 61.4189C17.9326 61.4802 18.1288 61.5578 18.3822 61.6396L19.2447 61.9257C19.5636 62.0361 19.862 62.122 20.14 62.1833C20.3378 62.2363 20.5405 62.2692 20.7449 62.2814V62.2814ZM32.436 58.447C33.0328 58.447 33.6705 58.3857 34.3531 58.2549C35.743 57.9945 37.0872 57.5317 38.3428 56.8814C38.9274 56.5834 39.483 56.2317 40.0024 55.8309C40.0541 55.7727 40.0981 55.7081 40.1332 55.6387C40.174 55.5566 40.2055 55.4703 40.2273 55.3812V55.3485C40.354 54.8825 40.4603 54.3674 40.5461 53.8156C40.6347 53.2534 40.7097 52.6891 40.7709 52.1233C40.8327 51.5575 40.9077 50.9932 40.9958 50.4309C41.0775 49.8791 41.1552 49.3354 41.2165 48.804C41.3023 48.2317 41.4086 47.6758 41.5353 47.1444C41.6662 46.6129 41.8338 46.1102 42.0463 45.6401C42.2564 45.1772 42.5487 44.7561 42.9088 44.3974C43.3281 43.9933 43.8013 43.6494 44.315 43.3754V43.31L44.2823 43.216C44.2894 42.9992 44.3559 42.7886 44.4745 42.6069C44.6176 42.3723 44.7774 42.1482 44.9527 41.9365C45.1229 41.7216 45.329 41.5376 45.5618 41.3929C45.7745 41.2653 45.999 41.1586 46.2322 41.074C46.1033 40.5603 45.9643 40.0493 45.8152 39.5411C45.6672 39.0353 45.539 38.524 45.431 38.0082C45.3264 37.3555 45.1996 36.7065 45.0508 36.0624C44.9324 35.5628 44.7822 35.0713 44.6012 34.5908C44.4182 34.1226 44.1705 33.6823 43.8654 33.2827C43.5506 32.8576 43.1541 32.3425 42.6881 31.7498C42.5101 31.5509 42.3487 31.3376 42.2057 31.1121C42.0947 30.8587 42.031 30.5872 42.0177 30.3109C41.9668 30.0314 41.9027 29.7545 41.8256 29.4811C41.5385 28.4459 41.2084 27.4231 40.8363 26.4153C40.64 25.8771 40.405 25.3539 40.1332 24.8497C39.9161 24.4459 39.6815 24.0517 39.4301 23.6683C39.2176 23.3494 38.9928 23.19 38.7598 23.19C38.2488 23.19 37.6397 23.3944 36.9366 23.7991C36.2376 24.2038 35.4895 24.6493 34.7047 25.1399C33.9157 25.6304 33.1513 26.0882 32.4033 26.5134C31.6593 26.9385 30.9889 27.1388 30.3921 27.1184C29.7552 27.1179 29.1366 26.905 28.6343 26.5134C28.093 26.1009 27.5994 25.6292 27.1627 25.1072C26.7172 24.5758 26.3452 24.1179 26.0468 23.7337C25.7484 23.3494 25.5276 23.1369 25.3764 23.096C25.2088 23.096 25.1107 23.2227 25.0902 23.4762C25.0675 23.7631 25.0566 24.0508 25.0575 24.3387V24.8824C25.0575 25.0132 25.0371 25.0949 24.9921 25.1399C24.7591 25.6304 24.5016 26.1087 24.2277 26.5747C23.9498 27.0448 23.6759 27.5231 23.3979 28.0136C22.8473 28.9563 22.5397 30.021 22.5027 31.1121C22.5027 31.431 22.5231 31.7498 22.5681 32.0687C22.609 32.3875 22.7153 32.6982 22.8869 32.9966L22.8215 33.1192C22.6574 33.3471 22.4756 33.5617 22.2779 33.761C22.0764 33.9662 21.8957 34.1908 21.7383 34.4314C20.9564 35.5865 20.3925 36.8749 20.0746 38.233C19.7557 39.5942 19.584 40.98 19.5636 42.3821C19.5636 42.7459 19.5881 43.1097 19.629 43.4695C19.6699 43.8333 19.6944 44.193 19.6944 44.5568C19.6931 44.6747 19.6822 44.7923 19.6617 44.9083C19.6411 45.0244 19.6302 45.142 19.629 45.2599C20.0834 45.3111 20.5205 45.4634 20.9085 45.7055C21.399 45.9834 21.9304 46.335 22.5027 46.7601C23.075 47.1852 23.6227 47.6758 24.1337 48.2317C24.6447 48.7836 25.1311 49.3231 25.6012 49.8586C26.0713 50.39 26.4106 50.9215 26.6232 51.4529C26.8357 51.9843 26.9747 52.4217 27.036 52.761C27.047 53.0081 27.0074 53.2549 26.9195 53.4862C26.8316 53.7175 26.6974 53.9283 26.5251 54.1058C26.1585 54.4634 25.7251 54.7454 25.2497 54.9357C25.6135 55.5733 26.0591 56.117 26.5905 56.5626C27.1219 57.0122 27.6982 57.372 28.3155 57.6499C28.9328 57.9279 29.6031 58.1282 30.3267 58.2549C31.0502 58.3857 31.7574 58.447 32.436 58.447V58.447ZM45.243 62.9845C45.6885 62.9845 46.1259 62.9191 46.551 62.7923C47.1953 62.6076 47.8083 62.328 48.3701 61.9625C48.926 61.5987 49.4329 61.1531 49.903 60.6177C51.0135 59.3364 52.3721 58.2935 53.8968 57.5518L54.9514 57.0736C55.3133 56.9158 55.6642 56.7342 56.002 56.5299C56.2459 56.3753 56.4721 56.1944 56.6765 55.9903C56.7793 55.8908 56.8607 55.7713 56.9155 55.6391C56.9704 55.5069 56.9975 55.3649 56.9953 55.2218C56.9955 55.0573 56.9622 54.8946 56.8972 54.7435C56.8209 54.5734 56.7249 54.4129 56.611 54.2653C56.3197 53.8597 56.0429 53.4438 55.7812 53.0185C55.5445 52.6316 55.3408 52.2255 55.1722 51.8044L54.6612 50.529C54.4769 50.0608 54.3266 49.58 54.2115 49.0901C54.1672 48.9388 54.092 48.7982 53.9908 48.6773C53.7853 48.3701 53.5047 48.1205 53.1755 47.9524C52.8464 47.7842 52.4798 47.7031 52.1104 47.7166C51.7292 47.7152 51.3542 47.8139 51.0231 48.0028L49.9357 48.6119C49.5572 48.8218 49.1743 49.0235 48.7871 49.2169C48.4105 49.4063 47.9945 49.5044 47.573 49.503C47.1961 49.5195 46.8246 49.4086 46.5183 49.1882C46.2245 48.9549 45.9846 48.6606 45.8152 48.3257C45.6335 47.9847 45.4738 47.6325 45.337 47.2711L44.9527 46.2164C44.7863 46.4898 44.5947 46.7471 44.3804 46.9849C44.1616 47.2286 43.9885 47.5097 43.8695 47.8148C43.5915 48.4524 43.4198 49.1637 43.3585 49.9527C43.2522 51.1872 43.1132 52.389 42.9415 53.5622C42.7666 54.7584 42.4792 55.9354 42.0831 57.0776C41.9701 57.4428 41.884 57.8158 41.8256 58.1936C41.7621 58.5849 41.7185 58.9792 41.6948 59.375C41.6948 60.4173 42.0177 61.2799 42.6554 61.9625C43.2931 62.6411 44.1556 62.9845 45.243 62.9845V62.9845Z" fill="#1166B0"/>
</g>
<defs>
<clipPath id="clip0_135_58">
<rect width="65.4043" height="65.4043" fill="white" transform="translate(0.211914 0.229004)"/>
</clipPath>
</defs>
</svg>
