<svg width="66" height="66" viewBox="0 0 66 66" fill="none" xmlns="http://www.w3.org/2000/svg">
<path d="M44.3013 61.5455H32.9143V55.7064C32.916 55.1664 32.8084 54.6316 32.5979 54.1343C32.3873 53.6371 32.0782 53.1876 31.6892 52.813C30.7094 51.8473 29.2838 51.3044 27.7841 51.3261C26.45 51.3387 25.1631 51.8213 24.1498 52.6891C23.4856 53.2767 22.6948 54.2936 22.6948 55.8086V61.5455H11.4049C9.52116 61.5435 7.71514 60.7943 6.38312 59.4623C5.05111 58.1302 4.30189 56.3242 4.29986 54.4405V43.1505H10.139C11.3091 43.1505 12.4473 42.6498 13.3441 41.7454C13.843 41.2425 14.2375 40.6459 14.505 39.99C14.7724 39.334 14.9075 38.6317 14.9025 37.9233C14.8642 35.2164 12.6364 32.9311 10.0368 32.9311H4.29986V21.5186C4.29617 20.5885 4.48143 19.6673 4.84441 18.8109C5.20738 17.9545 5.7405 17.1808 6.41145 16.5366C7.75139 15.2441 9.54325 14.5263 11.4049 14.5361H19.4834V12.6864C19.4834 11.5748 19.7048 10.4742 20.1347 9.44909C20.5646 8.42393 21.1944 7.49466 21.9873 6.71553C22.7803 5.93639 23.7204 5.323 24.753 4.91114C25.7855 4.49928 26.8898 4.29721 28.0013 4.31672C32.5349 4.39592 36.2228 8.19755 36.2228 12.7899V14.5361H44.3013C45.2243 14.5262 46.1401 14.7007 46.9948 15.0494C47.8495 15.3981 48.626 15.9139 49.2787 16.5666C49.9315 17.2194 50.4473 17.9959 50.796 18.8506C51.1447 19.7053 51.3191 20.6211 51.3092 21.5441V29.6226H53.0542C57.727 29.6226 61.5287 33.3271 61.5287 37.8799C61.5287 42.5565 57.7743 46.362 53.1589 46.362H51.3092V54.4405C51.3092 58.3583 48.1655 61.5455 44.3013 61.5455Z" fill="#1166B0"/>
</svg>
